HIERARCHY
ROOT reference
{
	OFFSET 0.000000 0.000000 0.000000
	CHANNELS 6 Xposition Yposition Zposition Xrotation Yrotation Zrotation
	JOINT root
	{
		OFFSET 0.000000 86.207802 0.000000
		CHANNELS 3 Xrotation Yrotation Zrotation
		JOINT Hips
		{
			OFFSET 0.000000 0.000000 0.000000
			CHANNELS 3 Xrotation Yrotation Zrotation
			JOINT Spine
			{
				OFFSET -0.016763 -0.106232 -0.020216
				CHANNELS 3 Xrotation Yrotation Zrotation
				JOINT Spine1
				{
					OFFSET 1.534380 17.765404 5.146680
					CHANNELS 3 Xrotation Yrotation Zrotation
					JOINT Spine2
					{
						OFFSET 0.042070 17.960503 4.686550
						CHANNELS 3 Xrotation Yrotation Zrotation
						JOINT Neck
						{
							OFFSET -1.400529 17.001503 7.316279
							CHANNELS 3 Xrotation Yrotation Zrotation
							JOINT Head
							{
								OFFSET -3.031670 9.306229 6.098700
								CHANNELS 3 Xrotation Yrotation Zrotation
								End Site
								{
									OFFSET 0.000000 0.100006 0.000000
								}
							}
						}
						JOINT RightShoulder
						{
							OFFSET -4.999829 16.941399 6.760039
							CHANNELS 3 Xrotation Yrotation Zrotation
							JOINT RightArm
							{
								OFFSET -15.922298 -2.201508 -0.489279
								CHANNELS 3 Xrotation Yrotation Zrotation
								JOINT RightForearm
								{
									OFFSET -27.222502 -10.708099 2.989573
									CHANNELS 3 Xrotation Yrotation Zrotation
									JOINT RightHand
									{
										OFFSET -18.691303 -1.037483 16.460897
										CHANNELS 3 Xrotation Yrotation Zrotation
										End Site
										{
											OFFSET 0.000000 0.099998 0.000000
										}
									}
								}
							}
						}
						JOINT LeftShoulder
						{
							OFFSET 2.191581 17.050606 7.885489
							CHANNELS 3 Xrotation Yrotation Zrotation
							JOINT LeftArm
							{
								OFFSET 16.010000 -0.650391 1.364618
								CHANNELS 3 Xrotation Yrotation Zrotation
								JOINT LeftForearm
								{
									OFFSET 17.253700 -21.284302 -10.674901
									CHANNELS 3 Xrotation Yrotation Zrotation
									JOINT LeftHand
									{
										OFFSET -13.034298 -7.463623 19.894802
										CHANNELS 3 Xrotation Yrotation Zrotation
										End Site
										{
											OFFSET 0.000000 0.099998 0.000000
										}
									}
								}
							}
						}
					}
				}
			}
			JOINT RightUpLeg
			{
				OFFSET -9.391540 1.623497 -0.722708
				CHANNELS 3 Xrotation Yrotation Zrotation
				JOINT RightLeg
				{
					OFFSET -20.571999 -38.636700 10.545102
					CHANNELS 3 Xrotation Yrotation Zrotation
					JOINT RightFoot
					{
						OFFSET -15.371899 -37.808498 -5.458569
						CHANNELS 3 Xrotation Yrotation Zrotation
						JOINT RightToe
						{
							OFFSET -5.629002 -11.154400 12.962801
							CHANNELS 3 Xrotation Yrotation Zrotation
							End Site
							{
								OFFSET 0.000000 0.100000 0.000000
							}
						}
					}
				}
			}
			JOINT LeftUpLeg
			{
				OFFSET 9.391530 -1.623497 0.722707
				CHANNELS 3 Xrotation Yrotation Zrotation
				JOINT LeftLeg
				{
					OFFSET 10.215402 -38.695202 20.628298
					CHANNELS 3 Xrotation Yrotation Zrotation
					JOINT LeftFoot
					{
						OFFSET -2.435713 -35.982101 -19.872700
						CHANNELS 3 Xrotation Yrotation Zrotation
						JOINT LeftToe
						{
							OFFSET 5.729292 -9.585570 14.121999
							CHANNELS 3 Xrotation Yrotation Zrotation
							End Site
							{
								OFFSET 0.000000 0.100000 0.000000
							}
						}
					}
				}
			}
		}
	}
}
MOTION
Frames: 16
Frame Time: 0.041667
0.000000 0.000000 0.000000 -0.000000 0.000000 -0.000000 0.000001 0.000000 0.000001 0.000001 0.000001 0.000001 0.000002 0.000000 0.000002 -0.000000 -0.000000 0.000000 -0.000011 -0.000000 0.000001 0.000001 0.000003 0.000002 0.000002 -0.000009 -0.000004 -0.000003 0.000000 0.000000 -0.000001 0.000000 0.000002 -0.000000 -0.000003 0.000002 0.000006 -0.000004 0.000006 -0.005554 -0.000001 -0.000000 0.000008 0.000001 0.000002 -0.000003 -0.000009 -0.000003 0.000002 -0.000003 -0.000003 0.000007 -0.000006 0.000005 0.000002 -0.000007 0.000006 0.000003 0.000004 0.000002 -0.000001 0.000003 0.000001 0.000006 -0.000005 0.000005 0.000009 0.000002 -0.000003 -0.000001 -0.000001 -0.000000 -0.000002 -0.000001 -0.000000 
0.000000 0.000000 0.000000 -0.000000 0.000000 -0.000000 0.000001 0.000000 0.000001 0.000001 0.000001 0.000001 0.000002 0.000000 0.000002 -0.000000 -0.000000 0.000000 -0.000011 -0.000000 0.000001 0.000001 0.000003 0.000002 0.000002 -0.000009 -0.000004 -0.000003 0.000000 0.000000 -0.000001 0.000000 0.000002 -0.000000 -0.000003 0.000002 0.000006 -0.000004 0.000006 -0.005554 -0.000001 -0.000000 0.000008 0.000001 0.000002 -0.000003 -0.000009 -0.000003 0.000002 -0.000003 -0.000003 0.000007 -0.000006 0.000005 0.000002 -0.000007 0.000006 0.000003 0.000004 0.000002 -0.000001 0.000003 0.000001 0.000006 -0.000005 0.000005 0.000009 0.000002 -0.000003 -0.000001 -0.000001 -0.000000 -0.000002 -0.000001 -0.000000 
4.919040 0.000000 -1.476130 -0.000000 0.000000 -0.000000 0.299355 -2.611159 -0.884089 -0.012358 -0.023459 0.107176 -0.238597 0.565857 0.274324 -0.406988 0.699968 0.408023 -0.318556 0.437233 0.295770 0.339766 0.313383 -0.227208 0.760162 0.554060 -0.048518 0.023738 -0.174872 -1.112535 0.687490 1.660071 0.639354 0.542946 -1.214279 0.539087 -0.297905 -0.184453 0.121363 -0.005553 0.362285 -0.055093 0.754363 0.969256 0.917699 -0.844905 -0.336947 -0.683015 -0.162322 -0.188001 0.653507 2.943423 4.559454 -0.465412 -6.842851 3.219834 -1.889796 14.092264 -7.976384 9.526877 -6.735207 0.456283 -3.007004 2.495603 2.303717 -4.167474 -6.016586 -0.704814 1.806539 0.720726 -0.644456 2.191503 2.583341 -0.025736 0.203856 
10.564100 0.000000 -2.784871 -0.000000 0.000000 -0.000000 0.593893 -4.724053 -0.849543 -0.014109 -0.025675 0.125029 -0.309112 0.925025 0.312569 -0.549951 1.179788 0.488177 -0.440307 0.752252 0.366101 0.348477 0.538954 -0.211756 0.769021 0.974502 0.013428 0.084202 -0.790057 -2.179722 1.016849 3.853576 1.597164 0.934197 -2.070322 0.927648 -0.120355 -0.037597 -0.054745 -0.006389 0.284268 -0.025532 1.713727 2.537964 2.308152 -1.950997 -0.760446 -1.579691 -0.143920 0.179824 0.479233 4.034520 9.802214 -0.032849 -7.737279 3.659813 -2.109905 14.037900 -8.644914 14.104398 1.063061 0.252020 -5.233192 4.010768 4.661808 -8.718892 -11.449788 -1.503868 3.372483 5.609277 -1.110169 0.827179 0.810267 -0.288008 3.693458 
17.391199 0.000000 -2.820101 -0.000000 0.000000 -0.000000 1.128426 -6.038067 -0.435621 -0.037292 -0.070400 0.328258 -0.222585 1.139471 0.119635 -0.453779 1.440630 0.225194 -0.382927 0.944488 0.200844 0.212005 0.613638 -0.020021 0.380314 1.127343 0.229175 0.113546 -1.195413 -2.291442 0.756019 5.362849 2.336304 1.186064 -2.613110 1.177820 0.128659 0.025969 -0.373381 0.030705 -0.177834 -0.213796 2.154226 4.027188 4.173815 -2.827114 -1.081843 -2.291885 -0.068356 0.794663 -0.188134 -1.771816 4.318965 4.178121 -3.582177 1.651859 -1.033655 12.525624 -4.986602 11.294108 8.930828 0.195785 -2.448357 4.490176 5.622587 -12.296099 -15.204817 -2.143193 4.410933 11.729656 -1.666779 -8.814185 0.804742 -0.775802 14.973209 
25.217300 0.000000 -2.526812 -0.000000 0.000000 -0.000000 1.766026 -6.298474 0.486879 -0.050018 -0.094771 0.441201 -0.005136 1.133109 -0.270620 -0.139952 1.457268 -0.316042 -0.161473 0.993393 -0.157920 0.039260 0.537842 0.281318 -0.172593 0.999376 0.579409 0.104791 -1.257439 -1.373399 0.241666 5.856880 2.558983 1.333642 -2.928223 1.324434 0.237022 -0.028079 -0.594952 0.091349 -0.895407 -0.558337 1.895201 4.996370 6.214866 -3.237963 -1.228310 -2.626422 0.061813 1.449941 -1.074748 -9.798125 -9.186393 8.553903 3.863652 -1.690504 1.217408 10.413934 -1.106060 3.876774 14.296558 0.569178 1.694823 3.817989 3.971303 -14.021073 -16.929677 -2.460003 4.874496 16.546485 -2.392382 -26.145331 3.385317 0.476471 27.822050 
33.195099 0.000000 -1.827422 -0.000000 0.000000 -0.000000 1.789376 -4.912722 2.052252 0.006852 0.012947 -0.060870 0.334004 0.767682 -0.626850 0.397899 1.200062 -0.772147 0.224201 0.864562 -0.464887 0.103386 0.383875 0.443105 -0.227167 0.705979 0.902536 0.084459 -1.109567 0.149142 0.900009 5.237789 1.251864 1.525174 -3.333894 1.514715 -0.321901 0.069432 0.181414 0.087038 -1.284801 -0.442638 0.952780 4.279148 6.793185 -2.556117 -0.983754 -2.071408 0.257896 1.533547 -1.140438 -11.688990 -15.958737 10.218308 9.685198 -4.042641 3.235689 9.852631 -0.726414 3.885511 15.691289 -1.555472 -6.321793 3.007511 -0.837528 -12.863919 -16.844614 -2.444030 4.851835 13.055168 -3.235703 -46.112786 6.429797 0.160994 8.800085 
41.202999 0.000000 -0.992678 -0.000000 0.000000 -0.000000 1.868482 -2.262614 5.134474 0.038648 0.072355 -0.337797 0.431838 0.287608 -1.492388 0.638232 0.734786 -1.974954 0.433507 0.612599 -1.295405 0.159094 0.272449 0.281014 0.021744 0.515973 0.696509 0.060593 -0.743110 1.729434 1.894038 4.434193 -1.222192 2.513010 -5.369213 2.496374 -1.728178 -0.336176 1.682430 0.035255 -0.932197 -0.070112 -0.243025 1.882107 6.846147 -1.564177 -0.614596 -1.265799 0.289646 0.979262 -0.913062 -8.698988 -10.395886 12.305425 13.056614 -5.290524 4.496300 5.992283 1.804112 15.641254 10.144304 -4.750677 -25.973054 4.212371 4.688380 -11.395755 -15.979692 -2.283746 4.620288 13.023613 1.625481 -35.332463 5.422759 -0.018404 -0.283289 
49.119301 0.000000 -0.293294 -0.000000 0.000000 -0.000000 2.245680 -1.505383 6.177130 -0.003708 -0.009249 0.026410 0.030280 0.389779 -2.039197 0.089760 0.764648 -2.776790 0.075439 0.637724 -1.851546 0.439408 0.146273 0.257507 0.504288 0.280420 0.900050 0.069374 -0.902503 0.993321 2.380160 4.193722 -0.756592 2.872976 -6.087753 2.854207 -1.850544 -0.639911 1.675682 0.007509 -0.757403 0.130666 0.453995 1.420759 7.173664 -1.809067 -0.707205 -1.464497 0.177551 0.469856 -0.514247 -5.554215 -8.584166 13.043385 8.846430 -3.718894 2.932106 0.864598 1.574518 12.108051 1.421058 0.500643 -29.819657 4.761904 4.547823 -8.299008 -17.256089 -2.521556 4.961212 15.222132 1.983052 -24.867826 4.537530 -0.013579 -0.237177 
56.822300 0.000000 -0.000004 -0.000000 0.000000 -0.000000 2.714131 -1.294003 6.499124 -0.081149 -0.154514 0.720056 -0.309983 0.678801 -2.467143 -0.411180 0.927085 -3.434882 -0.260269 0.747339 -2.304136 0.491531 0.099601 0.154042 0.703618 0.214420 0.772185 0.040385 -0.534996 0.613589 2.739156 3.536084 -0.986270 3.067065 -6.470134 3.047151 -2.038096 -0.805344 1.738479 -0.017643 -0.313825 0.237275 0.939214 1.177507 7.356291 -2.120674 -0.823678 -1.717483 0.024574 0.073958 -0.198921 -4.096762 -8.097166 12.426566 6.211378 -2.668280 2.005909 -5.756264 4.921585 3.246554 -0.065991 2.359561 -25.106966 4.868628 3.709278 -4.077787 -17.573730 -2.581958 5.045307 17.714176 2.236139 -18.786668 3.652306 -0.009446 -0.191005 
62.726200 0.000000 -1.851545 -0.000000 0.000000 -0.000000 3.081263 -1.599244 6.445052 -0.131163 -0.252376 1.172767 -0.505059 0.972659 -2.690229 -0.717509 1.172886 -3.778744 -0.475124 0.910507 -2.535712 0.290712 0.143868 -0.037908 0.587853 0.339571 0.279220 -0.038292 0.425353 0.891327 2.928033 2.443458 -2.197967 3.124847 -6.583306 3.104598 -2.428943 -0.854787 2.036116 -0.028616 0.410891 0.126429 0.991266 1.068270 7.143556 -2.227023 -0.863048 -1.803902 -0.148773 -0.255486 0.090591 -5.141705 -7.982776 10.522538 7.352782 -3.129547 2.401885 -12.915724 11.811443 -7.321696 6.487968 1.163315 -14.309318 4.678483 2.768540 0.755117 -17.001302 -2.473455 4.893555 20.810581 2.836238 -17.604900 2.801103 -0.006163 -0.146547 
67.534401 0.000000 -3.065585 -0.000000 0.000000 -0.000000 2.699851 -2.431889 5.617385 -0.114462 -0.219385 1.021030 -0.508964 1.190347 -2.454020 -0.760913 1.513273 -3.413184 -0.530156 1.123873 -2.275589 0.207217 0.158735 -0.196822 0.611536 0.382238 -0.046060 -0.109409 1.225994 1.301537 3.009294 1.696739 -3.429054 3.224407 -6.777589 3.203572 -3.070609 -1.037926 2.598941 0.009718 1.146697 -0.417454 0.976385 1.234918 5.856646 -1.589152 -0.624092 -1.286046 -0.212525 -1.061159 0.911089 -8.380307 -9.252708 8.822636 12.279260 -5.010470 4.200059 -17.120446 16.027039 -12.536209 10.615677 0.936558 -7.655411 4.630478 2.535819 6.191636 -15.214000 -2.144849 4.413439 25.247834 3.705130 -17.993426 3.740085 -0.146229 0.030798 
71.956200 0.000000 -4.009525 -0.000000 0.000000 -0.000000 2.045036 -2.318829 4.372508 -0.110774 -0.212184 0.987518 -0.461686 1.169380 -2.120082 -0.712911 1.472344 -2.945525 -0.503903 1.080019 -1.958559 0.156252 0.156877 -0.144843 0.479234 0.375238 -0.013877 -0.124472 1.395834 1.052553 2.406248 1.106932 -2.879686 2.907289 -6.155577 2.888300 -3.154579 -1.280308 2.592188 0.058715 1.534166 -0.930261 0.508323 1.284255 3.815110 -0.016388 -0.006651 -0.013225 -0.541650 -1.617400 2.044788 -9.902132 -10.194854 7.212016 14.852176 -5.919505 5.192835 -19.926915 18.160228 -15.458468 14.358559 1.071463 -4.841980 5.111394 -1.060307 10.372605 -11.872090 -1.572272 3.491164 25.622714 4.188809 -23.293009 -6.226314 0.537465 -0.255094 
76.371498 0.000000 -4.852326 -0.000000 0.000000 -0.000000 1.308446 -1.150134 3.064278 -0.112548 -0.215696 1.003519 -0.399259 0.856250 -1.764037 -0.606131 1.007128 -2.478614 -0.415258 0.752010 -1.656934 0.121675 0.141379 0.078004 0.201203 0.328345 0.291072 -0.084485 0.990912 0.273636 1.412025 0.609327 -0.841125 2.160527 -4.653768 2.146037 -2.635673 -1.419373 2.017919 0.093606 1.487857 -1.189263 -0.274754 1.227029 1.350703 2.018694 0.852605 1.624596 -1.031929 -1.727656 3.096601 -9.230718 -10.459859 5.691594 14.174113 -5.684930 4.927813 -20.808375 18.342809 -16.680876 17.137570 1.298653 -5.191083 5.512128 -5.738769 11.914189 -7.632070 -0.926536 2.279325 20.327505 3.923778 -29.047285 -22.576267 0.533642 -1.173027 
80.569901 0.000000 -5.151146 -0.000000 0.000000 -0.000000 0.691604 0.066333 1.664441 -0.114687 -0.219883 1.022902 -0.274818 0.409273 -1.272684 -0.399083 0.351660 -1.832425 -0.253214 0.292785 -1.238777 0.079350 0.146049 0.118082 0.078386 0.320139 0.295118 -0.080867 0.930872 0.554666 1.266524 0.021562 -0.464491 1.321949 -2.903358 1.312832 -1.684884 -0.745193 1.441663 0.037934 1.071816 -0.623388 -0.562936 1.053180 -0.864074 2.782155 1.192672 2.236179 -0.729579 -1.146874 2.659818 -7.528516 -8.081755 3.890156 12.327238 -5.027910 4.218264 -18.169637 15.804974 -15.993704 18.745271 1.479911 -6.051730 2.881377 -3.093040 7.888945 -3.762949 -0.418321 1.137852 9.039669 3.884090 -15.328785 -11.810898 1.879351 -7.910970 
84.972801 0.000000 -5.305226 -0.000000 0.000000 -0.000000 0.229551 0.591035 0.534217 -0.082253 -0.156693 0.729844 -0.128781 0.080986 -0.646613 -0.174533 -0.055544 -0.959094 -0.097363 -0.007064 -0.656774 0.035517 0.087807 0.085064 0.010419 0.189687 0.179066 -0.051406 0.592391 0.497119 0.831070 -0.163238 -0.284929 0.588504 -1.314765 0.584324 -0.759935 -0.225216 0.797499 0.000970 0.512979 -0.153622 -0.436193 0.558689 -1.484046 2.055301 0.868686 1.653962 -0.302261 -0.466213 1.436678 -4.089653 -4.935904 2.116523 6.530139 -2.798034 2.115673 -10.156000 8.695947 -10.447520 12.035239 0.817054 -3.958755 1.052083 -1.263767 3.687543 -1.124694 -0.117098 0.342671 1.376280 2.085605 -4.487653 -2.383701 1.148501 -7.295572 
